<?xml version="1.0" encoding="UTF-8"?>
<svg version="1.1" xmlns="http://www.w3.org/2000/svg" width="960" height="958">
<path d="M0 0 C316.8 0 633.6 0 960 0 C960 316.14 960 632.28 960 958 C643.2 958 326.4 958 0 958 C0 641.86 0 325.72 0 0 Z " fill="#000000" transform="translate(0,0)"/>
<path d="M0 0 C316.8 0 633.6 0 960 0 C960 316.14 960 632.28 960 958 C643.2 958 326.4 958 0 958 C0 641.86 0 325.72 0 0 Z M58 58 C58 335.2 58 612.4 58 898 C335.2 898 612.4 898 898 898 C898 620.8 898 343.6 898 58 C620.8 58 343.6 58 58 58 Z " fill="#000000" transform="translate(0,0)"/>
<path d="M0 0 C277.2 0 554.4 0 840 0 C840 277.2 840 554.4 840 840 C562.8 840 285.6 840 0 840 C0 562.8 0 285.6 0 0 Z M60 60 C60 297.6 60 535.2 60 780 C297.6 780 535.2 780 780 780 C780 542.4 780 304.8 780 60 C542.4 60 304.8 60 60 60 Z " fill="#FFFFFF" transform="translate(58,58)"/>
<path d="M0 0 C39.6 0 79.2 0 120 0 C120 59.4 120 118.8 120 180 C199.2 180 278.4 180 360 180 C360 120.6 360 61.2 360 0 C399.6 0 439.2 0 480 0 C480 158.4 480 316.8 480 480 C440.4 480 400.8 480 360 480 C360 420.6 360 361.2 360 300 C280.8 300 201.6 300 120 300 C120 359.4 120 418.8 120 480 C80.4 480 40.8 480 0 480 C0 321.6 0 163.2 0 0 Z " fill="#FFFFFF" transform="translate(238,238)"/>
</svg>
